<svg xmlns="http://www.w3.org/2000/svg" width="239.932" height="58.335" viewBox="0 0 239.932 58.335">
  <g id="Logo_White" data-name="Logo White" transform="translate(-2883.754 -284.013)">
    <path id="Path_1" data-name="Path 1" d="M2883.754,322.275a18.315,18.315,0,0,1,1.178-6.462h0c2.713-7.17,7.874-11.557,15.447-12.876a19.691,19.691,0,0,1,21.71,11.9,20.483,20.483,0,0,1,1.488,7.882c.02,6.127,0,12.253.031,18.379.005,1.006-.233,1.355-1.582,1.2a31.486,31.486,0,0,0-5.586.023c-1.053.068-1.26-.274-1.255-1.168.031-6.2-.112-12.414.054-18.614a11.556,11.556,0,0,0-23.109-.272c.062,6.284,0,12.569.034,18.854a1.2,1.2,0,0,1-1.239,1.206c-2.389-.062-4.78-.019-7.171-.018Z" fill="#fff"/>
    <path id="Path_2" data-name="Path 2" d="M3061.56,284.076q0,28.386.03,56.771c0,1.371-.42,1.609-1.938,1.463a25.857,25.857,0,0,0-5.084-.007c-1.1.111-1.412-.1-1.411-1q.027-23.973,0-47.945a2.08,2.08,0,0,1,.727-1.543c2.5-2.6,5.274-4.935,7.486-7.806Z" fill="#fff"/>
    <path id="Path_3" data-name="Path 3" d="M3030.751,302.673a19.811,19.811,0,1,0-.25,39.62,20.011,20.011,0,0,0,20.11-19.68C3050.751,311.8,3041.451,302.314,3030.751,302.673Zm-.05,31.29a11.5,11.5,0,0,1-11.6-11.579,11.59,11.59,0,1,1,11.6,11.579Z" fill="#fff"/>
    <path id="Path_4" data-name="Path 4" d="M3105.949,331.284c0,3.3-.03,6.6.019,9.9.014.894-.25,1.172-1.15,1.144-2-.062-4-.069-6,0-.989.035-1.291-.251-1.284-1.257.045-6.165.026-12.331.022-18.5a11.342,11.342,0,0,0-9.143-11.41,11.547,11.547,0,1,0-4.066,22.719,7.736,7.736,0,0,0,3.335-.062c.9-.25,1.2.058,1.372.884.425,2.094.872,4.186,1.394,6.258.169.671-.03.8-.617.932a18.431,18.431,0,0,1-11.024-.959c-6.556-2.644-10.8-7.443-12.264-14.341a19.082,19.082,0,0,1,4.875-17.635,18.8,18.8,0,0,1,11.71-6.169,19.963,19.963,0,0,1,22.824,20.371C3105.924,325.874,3105.949,328.579,3105.949,331.284Z" fill="#fff"/>
    <path id="Path_5" data-name="Path 5" d="M2966.071,314.119c0,2.9-.02,5.806,0,8.709a19.7,19.7,0,0,1-16.435,19.2,19.955,19.955,0,0,1-23.12-16.524,22.459,22.459,0,0,1-.3-3.549q.057-9.007,0-18.015c-.007-.977.248-1.321,1.265-1.281,1.916.077,3.84.08,5.755,0,1.078-.045,1.428.243,1.418,1.372-.058,6.163-.033,12.328-.026,18.492a11.619,11.619,0,0,0,21.253,6.329,12.374,12.374,0,0,0,2-6.878q.042-8.947-.012-17.895c-.008-1.045.2-1.487,1.368-1.425,1.914.1,3.838.061,5.756.012.829-.022,1.109.234,1.1,1.078C2966.048,307.2,2966.071,310.659,2966.071,314.119Z" fill="#fff"/>
    <path id="Path_6" data-name="Path 6" d="M2990.409,330.845l14.3-27.711a.544.544,0,0,1,.842-.159c1.844,1.679,3.316,3.637,5.093,5.3.514.48.027.887-.17,1.271q-4.63,9.023-9.286,18.033c-2.364,4.6-4.731,9.2-7.056,13.815a1.719,1.719,0,0,1-1.615.939c-1.464-.057-2.934-.048-4.4,0a1.327,1.327,0,0,1-1.39-.852q-4.674-9.135-9.394-18.246c-2.337-4.522-4.67-9.046-7.05-13.545a1.575,1.575,0,0,1,.214-1.793c1.411-1.555,2.92-3.015,4.347-4.551.715-.77,1.049-.674,1.507.235,2.865,5.683,5.77,11.346,8.67,17.012q2.5,4.885,5.028,9.758A5.306,5.306,0,0,0,2990.409,330.845Z" fill="#fff"/>
    <path id="Path_7" data-name="Path 7" d="M3112.98,341.526l2.263-7.379a.63.63,0,0,1,.6-.445h7.21a.63.63,0,0,1,.6.81l-2.209,7.379a.63.63,0,0,1-.6.449h-7.265A.63.63,0,0,1,3112.98,341.526Z" fill="#30a6d9"/>
  </g>
</svg>
